<?xml version="1.0" encoding="UTF-8" standalone="no"?>
<svg
   width="222.67378mm"
   height="98.088837mm"
   viewBox="0 0 222.67378 98.088837"
   version="1.1"
   xmlns="http://www.w3.org/2000/svg">
  <rect
     style="fill:#00c4a7;fill-opacity:1;stroke-width:0.250208"
     width="222.67378"
     height="98.088837"
     x="0"
     y="0"
     rx="14.308658" />
  <path
     style="font-weight:bold;font-size:102.306px;line-height:1.25;font-family:Mukti;-inkscape-font-specification:'Mukti Bold';font-variant-ligatures:none;stroke-width:0.264583"
     d="m 13.846,11.461 h 51.902 v 14.537 H 33.078 v 13.887 h 30.722 v 14.537 H 33.078 v 17.084 h 33.769 v 14.536 H 13.846 Z m 121.788,2.348 v 15.786 q -6.144,-2.748 -11.989,-4.147 -5.845,-1.398 -11.04,-1.398 -6.894,0 -10.191,1.898 -3.297,1.898 -3.297,5.895 0,2.997 2.198,4.696 2.248,1.648 8.093,2.847 l 8.192,1.648 q 12.439,2.498 17.684,7.593 5.245,5.095 5.245,14.487 0,12.339 -7.343,18.383 -7.293,5.994 -22.329,5.994 -7.094,0 -14.237,-1.349 -7.143,-1.349 -14.287,-3.996 V 65.911 q 7.143,3.797 13.787,5.745 6.694,1.898 12.888,1.898 6.294,0 9.641,-2.098 3.347,-2.098 3.347,-5.994 0,-3.497 -2.298,-5.395 -2.248,-1.898 -9.042,-3.397 l -7.443,-1.648 q -11.19,-2.398 -16.385,-7.643 -5.145,-5.245 -5.145,-14.137 0,-11.14 7.193,-17.134 7.193,-5.995 20.681,-5.995 6.144,0 12.638,0.95 6.494,0.899 13.438,2.747 z m 69.087,0 v 15.786 q -6.145,-2.748 -11.989,-4.147 -5.845,-1.398 -11.04,-1.398 -6.894,0 -10.191,1.898 -3.297,1.898 -3.297,5.895 0,2.997 2.198,4.696 2.248,1.648 8.093,2.847 l 8.192,1.648 q 12.439,2.498 17.684,7.593 5.245,5.095 5.245,14.487 0,12.339 -7.343,18.383 -7.294,5.994 -22.33,5.994 -7.093,0 -14.237,-1.349 -7.143,-1.349 -14.286,-3.996 V 65.911 q 7.143,3.797 13.787,5.745 6.694,1.898 12.888,1.898 6.294,0 9.641,-2.098 3.347,-2.098 3.347,-5.994 0,-3.497 -2.298,-5.395 -2.248,-1.898 -9.042,-3.397 l -7.443,-1.648 q -11.19,-2.398 -16.385,-7.643 -5.145,-5.245 -5.145,-14.137 0,-11.14 7.193,-17.134 7.194,-5.995 20.681,-5.995 6.144,0 12.639,0.95 6.494,0.899 13.437,2.747 z"
     fill="#000" />
</svg>
