<?xml version="1.0" encoding="UTF-8" standalone="no"?>
<!-- Created with Inkscape (http://www.inkscape.org/) -->

<svg
   width="211.73mm"
   height="98.150131mm"
   viewBox="0 0 211.73 98.150131"
   version="1.1"
   id="svg1"
   xml:space="preserve"
   xmlns="http://www.w3.org/2000/svg"
   xmlns:svg="http://www.w3.org/2000/svg"><defs
     id="defs1" /><g
     inkscape:label="Layer 1"
     inkscape:groupmode="layer"
     id="layer1"
     transform="translate(-46.780821,-155.43309)"><rect
       style="fill:#00c4a7;fill-opacity:1;stroke-width:0.250208"
       id="rect4"
       width="222.67378"
       height="98.088837"
       x="46.780827"
       y="155.43309"
       rx="14.308658" /><path
       style="font-weight:bold;font-size:102.306px;line-height:1.25;font-family:Mukti;-inkscape-font-specification:'Mukti Bold';font-variant-ligatures:none;stroke-width:0.264583"
       d="m 60.627161,166.89413 h 51.902309 v 14.53664 H 79.85949 v 13.88724 h 30.72177 v 14.53664 H 79.85949 v 17.08431 h 33.76897 V 241.4756 H 60.627161 Z m 121.788099,2.34784 v 15.7855 q -6.14435,-2.74748 -11.98898,-4.14619 -5.84463,-1.39872 -11.03986,-1.39872 -6.89367,0 -10.19064,1.89826 -3.29697,1.89825 -3.29697,5.89458 0,2.99725 2.19798,4.69569 2.24794,1.64848 8.09257,2.84738 l 8.19247,1.64849 q 12.43857,2.4977 17.68375,7.59302 5.24518,5.09532 5.24518,14.48669 0,12.33866 -7.34325,18.38311 -7.2933,5.99449 -22.32948,5.99449 -7.09349,0 -14.23692,-1.34876 -7.14344,-1.34876 -14.28688,-3.99633 V 221.3441 q 7.14344,3.79651 13.78734,5.74472 6.69385,1.89826 12.88815,1.89826 6.29422,0 9.64115,-2.09808 3.34692,-2.09807 3.34692,-5.99449 0,-3.49679 -2.29789,-5.39504 -2.24793,-1.89826 -9.04169,-3.39688 l -7.44316,-1.64849 q -11.18972,-2.39779 -16.38495,-7.64297 -5.14527,-5.24518 -5.14527,-14.13701 0,-11.13977 7.19339,-17.13426 7.19339,-5.99449 20.681,-5.99449 6.14435,0 12.63839,0.94912 6.49403,0.89918 13.43765,2.74748 z m 69.08653,0 v 15.7855 q -6.14435,-2.74748 -11.98898,-4.14619 -5.84463,-1.39872 -11.03986,-1.39872 -6.89366,0 -10.19063,1.89826 -3.29697,1.89825 -3.29697,5.89458 0,2.99725 2.19798,4.69569 2.24793,1.64848 8.09256,2.84738 l 8.19247,1.64849 q 12.43857,2.4977 17.68375,7.59302 5.24519,5.09532 5.24519,14.48669 0,12.33866 -7.34326,18.38311 -7.2933,5.99449 -22.32948,5.99449 -7.09348,0 -14.23692,-1.34876 -7.14344,-1.34876 -14.28687,-3.99633 V 221.3441 q 7.14343,3.79651 13.78733,5.74472 6.69385,1.89826 12.88816,1.89826 6.29421,0 9.64114,-2.09808 3.34692,-2.09807 3.34692,-5.99449 0,-3.49679 -2.29789,-5.39504 -2.24793,-1.89826 -9.04169,-3.39688 l -7.44316,-1.64849 q -11.18972,-2.39779 -16.38494,-7.64297 -5.14528,-5.24518 -5.14528,-14.13701 0,-11.13977 7.19339,-17.13426 7.19339,-5.99449 20.681,-5.99449 6.14436,0 12.63839,0.94912 6.49403,0.89918 13.43765,2.74748 z"
       id="text5"
       fill="#000" 
       aria-label="ESS" /></g></svg>
