<?xml version="1.0" encoding="UTF-8" standalone="no"?>
<!-- Created with Inkscape (http://www.inkscape.org/) -->

<svg
   width="641.61725mm"
   height="98.150131mm"
   viewBox="0 0 641.61725 98.150131"
   version="1.1"
   id="svg1"
   xml:space="preserve"
   inkscape:export-filename="esstrapis.svg"
   inkscape:export-xdpi="109.69696"
   inkscape:export-ydpi="109.69696"
   xmlns:inkscape="http://www.inkscape.org/namespaces/inkscape"
   xmlns:sodipodi="http://sodipodi.sourceforge.net/DTD/sodipodi-0.dtd"
   xmlns="http://www.w3.org/2000/svg"
   xmlns:svg="http://www.w3.org/2000/svg"><sodipodi:namedview
     id="namedview1"
     pagecolor="#ffffff"
     bordercolor="#666666"
     borderopacity="1.0"
     inkscape:showpageshadow="2"
     inkscape:pageopacity="0.0"
     inkscape:pagecheckerboard="0"
     inkscape:deskcolor="#d1d1d1"
     inkscape:document-units="mm"
     showguides="true"><sodipodi:guide
       position="78.848341,204.91608"
       orientation="0,-1"
       id="guide1"
       inkscape:locked="false" /><sodipodi:guide
       position="80.357401,131.85247"
       orientation="0,-1"
       id="guide2"
       inkscape:locked="false" /><inkscape:page
       x="0"
       y="0"
       width="641.61725"
       height="98.150131"
       id="page2"
       margin="0"
       bleed="0" /></sodipodi:namedview><defs
     id="defs1" /><g
     inkscape:label="Layer 1"
     inkscape:groupmode="layer"
     id="layer1"
     transform="translate(-46.780821,-155.43309)"><rect
       style="fill:#7fe07c;fill-opacity:1;stroke-width:0.250208"
       id="rect4"
       width="222.67378"
       height="98.088837"
       x="46.780827"
       y="155.43309"
       rx="14.308658" /><path
       style="font-weight:bold;font-size:102.306px;line-height:1.25;font-family:Mukti;-inkscape-font-specification:'Mukti Bold';font-variant-ligatures:none;stroke-width:0.264583"
       d="m 60.627161,166.89413 h 51.902309 v 14.53664 H 79.85949 v 13.88724 h 30.72177 v 14.53664 H 79.85949 v 17.08431 h 33.76897 V 241.4756 H 60.627161 Z m 121.788099,2.34784 v 15.7855 q -6.14435,-2.74748 -11.98898,-4.14619 -5.84463,-1.39872 -11.03986,-1.39872 -6.89367,0 -10.19064,1.89826 -3.29697,1.89825 -3.29697,5.89458 0,2.99725 2.19798,4.69569 2.24794,1.64848 8.09257,2.84738 l 8.19247,1.64849 q 12.43857,2.4977 17.68375,7.59302 5.24518,5.09532 5.24518,14.48669 0,12.33866 -7.34325,18.38311 -7.2933,5.99449 -22.32948,5.99449 -7.09349,0 -14.23692,-1.34876 -7.14344,-1.34876 -14.28688,-3.99633 V 221.3441 q 7.14344,3.79651 13.78734,5.74472 6.69385,1.89826 12.88815,1.89826 6.29422,0 9.64115,-2.09808 3.34692,-2.09807 3.34692,-5.99449 0,-3.49679 -2.29789,-5.39504 -2.24793,-1.89826 -9.04169,-3.39688 l -7.44316,-1.64849 q -11.18972,-2.39779 -16.38495,-7.64297 -5.14527,-5.24518 -5.14527,-14.13701 0,-11.13977 7.19339,-17.13426 7.19339,-5.99449 20.681,-5.99449 6.14435,0 12.63839,0.94912 6.49403,0.89918 13.43765,2.74748 z m 69.08653,0 v 15.7855 q -6.14435,-2.74748 -11.98898,-4.14619 -5.84463,-1.39872 -11.03986,-1.39872 -6.89366,0 -10.19063,1.89826 -3.29697,1.89825 -3.29697,5.89458 0,2.99725 2.19798,4.69569 2.24793,1.64848 8.09256,2.84738 l 8.19247,1.64849 q 12.43857,2.4977 17.68375,7.59302 5.24519,5.09532 5.24519,14.48669 0,12.33866 -7.34326,18.38311 -7.2933,5.99449 -22.32948,5.99449 -7.09348,0 -14.23692,-1.34876 -7.14344,-1.34876 -14.28687,-3.99633 V 221.3441 q 7.14343,3.79651 13.78733,5.74472 6.69385,1.89826 12.88816,1.89826 6.29421,0 9.64114,-2.09808 3.34692,-2.09807 3.34692,-5.99449 0,-3.49679 -2.29789,-5.39504 -2.24793,-1.89826 -9.04169,-3.39688 l -7.44316,-1.64849 q -11.18972,-2.39779 -16.38494,-7.64297 -5.14528,-5.24518 -5.14528,-14.13701 0,-11.13977 7.19339,-17.13426 7.19339,-5.99449 20.681,-5.99449 6.14436,0 12.63839,0.94912 6.49403,0.89918 13.43765,2.74748 z"
       id="text5"
       aria-label="ESS" /><path
       style="font-weight:bold;font-size:102.306px;line-height:1.25;font-family:Mukti;-inkscape-font-specification:'Mukti Bold';font-variant-ligatures:none;stroke-width:0.264583"
       d="m 281.92154,166.89413 h 68.73684 v 14.53664 H 325.9311 v 60.04483 h -19.23233 v -60.04483 h -24.77723 z m 106.0026,33.06961 q 6.04445,0 8.64206,-2.24793 2.64757,-2.24794 2.64757,-7.39321 0,-5.09532 -2.64757,-7.2933 -2.59761,-2.19798 -8.64206,-2.19798 h -8.09256 v 19.13242 z m -8.09256,13.28779 v 28.22407 h -19.23233 v -74.58147 h 29.37301 q 14.73646,0 21.58017,4.94545 6.89367,4.94546 6.89367,15.63564 0,7.3932 -3.5967,12.13884 -3.54674,4.74564 -10.74013,6.99358 3.94638,0.89917 7.04353,4.09623 3.14711,3.14711 6.34417,9.59119 l 10.44041,21.18054 H 407.4562 l -9.09165,-18.53297 q -2.74748,-5.59486 -5.59486,-7.64298 -2.79743,-2.04812 -7.49311,-2.04812 z m 104.80371,14.63656 h -30.07237 l -4.74564,13.58751 h -19.33223 l 27.62461,-74.58147 h 22.92894 l 27.62461,74.58147 H 489.33098 Z M 459.35852,214.0508 h 20.43122 l -10.19063,-29.67274 z m 59.1956,-47.15667 h 31.92067 q 14.23692,0 21.82994,6.34417 7.64298,6.29422 7.64298,17.98348 0,11.73921 -7.64298,18.08338 -7.59302,6.29422 -21.82994,6.29422 h -12.68834 v 25.87622 h -19.23233 z m 19.23233,13.93719 v 20.83086 h 10.64022 q 5.59486,0 8.64206,-2.69752 3.0472,-2.74747 3.0472,-7.74288 0,-4.99541 -3.0472,-7.69294 -3.0472,-2.69752 -8.64206,-2.69752 z m 55.74878,-13.93719 h 19.23233 v 74.58147 h -19.23233 z m 89.96735,2.34784 v 15.7855 q -6.14436,-2.74748 -11.98899,-4.14619 -5.84463,-1.39872 -11.03986,-1.39872 -6.89366,0 -10.19063,1.89826 -3.29697,1.89825 -3.29697,5.89458 0,2.99725 2.19798,4.69569 2.24793,1.64848 8.09256,2.84738 l 8.19247,1.64849 q 12.43858,2.4977 17.68376,7.59302 5.24518,5.09532 5.24518,14.48669 0,12.33866 -7.34326,18.38311 -7.29329,5.99449 -22.32948,5.99449 -7.09348,0 -14.23692,-1.34876 -7.14343,-1.34876 -14.28687,-3.99633 V 221.3441 q 7.14344,3.79651 13.78733,5.74472 6.69385,1.89826 12.88816,1.89826 6.29422,0 9.64114,-2.09808 3.34693,-2.09807 3.34693,-5.99449 0,-3.49679 -2.29789,-5.39504 -2.24794,-1.89826 -9.0417,-3.39688 l -7.44316,-1.64849 q -11.18972,-2.39779 -16.38494,-7.64297 -5.14527,-5.24518 -5.14527,-14.13701 0,-11.13977 7.19339,-17.13426 7.19339,-5.99449 20.68099,-5.99449 6.14436,0 12.63839,0.94912 6.49404,0.89918 13.43766,2.74748 z"
       id="text6"
       aria-label="TRAPIS" /><path
       sodipodi:type="star"
       style="fill:#7fe07c;fill-opacity:1;stroke-width:0.264583"
       id="path7"
       inkscape:flatsided="false"
       sodipodi:sides="3"
       sodipodi:cx="263.26791"
       sodipodi:cy="240.82066"
       sodipodi:r1="25.463818"
       sodipodi:r2="12.731908"
       sodipodi:arg1="0.52220889"
       sodipodi:arg2="1.5694064"
       inkscape:rounded="0"
       inkscape:randomized="0"
       d="m 285.3379,253.52191 -22.05229,0.0307 -22.05229,0.0307 10.9996,-19.11317 10.9996,-19.11317 11.05269,19.08252 z"
       inkscape:transform-center-x="-0.017695869"
       inkscape:transform-center-y="-6.3506234" /></g></svg>
