<?xml version="1.0" encoding="UTF-8" standalone="no"?>
<!-- Created with Inkscape (http://www.inkscape.org/) -->

<svg
   width="616.00439mm"
   height="103.50151mm"
   viewBox="0 0 616.00439 103.50151"
   version="1.1"
   id="svg1"
   xml:space="preserve"
   inkscape:export-filename="bitmap.svg"
   inkscape:export-xdpi="109.69696"
   inkscape:export-ydpi="109.69696"
   xmlns:inkscape="http://www.inkscape.org/namespaces/inkscape"
   xmlns:sodipodi="http://sodipodi.sourceforge.net/DTD/sodipodi-0.dtd"
   xmlns="http://www.w3.org/2000/svg"
   xmlns:svg="http://www.w3.org/2000/svg"><sodipodi:namedview
     id="namedview1"
     pagecolor="#ffffff"
     bordercolor="#666666"
     borderopacity="1.0"
     inkscape:showpageshadow="2"
     inkscape:pageopacity="0.0"
     inkscape:pagecheckerboard="0"
     inkscape:deskcolor="#d1d1d1"
     inkscape:document-units="mm"
     showguides="true"><sodipodi:guide
       position="49.55481,89.102113"
       orientation="0,-1"
       id="guide1"
       inkscape:locked="false" /><sodipodi:guide
       position="47.878223,16.248022"
       orientation="0,-1"
       id="guide2"
       inkscape:locked="false" /><inkscape:page
       x="0"
       y="0"
       width="616.00439"
       height="103.50151"
       id="page2"
       margin="0"
       bleed="0" /></sodipodi:namedview><defs
     id="defs1" /><g
     inkscape:label="Layer 1"
     inkscape:groupmode="layer"
     id="layer1"
     transform="translate(-47.192493,-33.974246)"><g
       style="display:block"
       id="g1"
       transform="matrix(0.13229167,0,0,0.13229167,-30.040886,-49.753507)"><path
         fill="#00c4a7"
         d="m 1336.43,1275.42 c 8.25,7.12 15.78,15.96 23.03,24.16 29.67,33.59 61.08,65.54 89.68,100.08 4.05,4.89 9.19,8.91 13.21,13.75 -6.35,2.41 -96.33,1.57 -111.1,1.6 l -350.97,0.17 H 819.555 c -30.481,0 -62.323,0.38 -92.638,-0.37 -17.422,-0.43 -46.643,-10.29 -62.2,-18.43 -39.267,-20.54 -62.117,-53.86 -74.741,-95.52 -2.278,-7.52 -5.527,-18.23 -5.667,-26.1 -0.582,-32.58 -0.237,-65.68 -0.237,-98.27 l -0.011,-194.77 0.243,-144.26 c 0.087,-50.212 -5.562,-76.731 19.312,-122.916 26.488,-49.183 74.058,-79.282 130.07,-81.018 39.604,-1.227 78.728,-0.208 117.765,0.15 l 154.069,0.086 c 40.73,-0.455 81.47,-0.643 122.2,-0.565 47.32,-0.245 88.55,-3.559 131.8,19.891 5.47,2.97 11.55,9.222 16.53,11.251 10.14,9.416 28.31,27.146 35.1,38.976 12.54,21.637 20.73,45.514 24.11,70.291 1.99,15.057 1.15,42.123 1.1,58.44 l -0.12,95.671 z"
         id="path1" /><path
         fill="#000"
         d="m 775.346,744.003 381.614,-0.078 -0.18,118.988 -259.817,-0.008 0.035,87.394 216.092,-0.278 -0.01,117.909 -216.051,-0.2 0.039,16.85 -0.011,93.1 261.663,-0.24 0.03,119.63 c -126.76,1.49 -256.634,0.03 -383.641,0.01 0.71,-82.62 0.866,-165.25 0.467,-247.88 z"
         id="path2" /></g><path fill="#eee"
       style="font-weight:bold;font-size:95.25px;line-height:1.25;font-family:Mukti;-inkscape-font-specification:'Mukti Bold';font-variant-ligatures:none;stroke-width:0.264583"
       d="m 208.43399,52.299217 v 14.696778 q -5.72058,-2.557984 -11.16211,-3.86023 -5.44153,-1.302246 -10.27844,-1.302246 -6.41821,0 -9.48779,1.767334 -3.06958,1.767334 -3.06958,5.488037 0,2.790527 2.04638,4.371826 2.0929,1.53479 7.53443,2.651001 l 7.62744,1.53479 q 11.58069,2.32544 16.46411,7.069336 4.88342,4.743897 4.88342,13.487549 0,11.487668 -6.83679,17.115238 -6.79028,5.58105 -20.78943,5.58105 -6.60425,0 -13.255,-1.25574 -6.65076,-1.25573 -13.30152,-3.7207 v -15.11536 q 6.65076,3.53467 12.83643,5.34851 6.23218,1.76734 11.99927,1.76734 5.8601,0 8.97619,-1.95337 3.11609,-1.95337 3.11609,-5.58105 0,-3.25562 -2.1394,-5.022954 -2.0929,-1.767334 -8.41809,-3.162598 l -6.92981,-1.53479 q -10.41797,-2.232422 -15.25489,-7.115845 -4.7904,-4.883422 -4.7904,-13.161987 0,-10.37146 6.69726,-15.952514 6.69727,-5.581055 19.25464,-5.581055 5.72058,0 11.76673,0.883667 6.04614,0.837158 12.51086,2.557983 z m 64.32166,0 v 14.696778 q -5.72059,-2.557984 -11.16211,-3.86023 -5.44153,-1.302246 -10.27845,-1.302246 -6.41821,0 -9.48779,1.767334 -3.06958,1.767334 -3.06958,5.488037 0,2.790527 2.04639,4.371826 2.09289,1.53479 7.53442,2.651001 l 7.62744,1.53479 q 11.58069,2.32544 16.46411,7.069336 4.88343,4.743897 4.88343,13.487549 0,11.487668 -6.83679,17.115238 -6.79029,5.58105 -20.78943,5.58105 -6.60425,0 -13.25501,-1.25574 -6.65076,-1.25573 -13.30151,-3.7207 v -15.11536 q 6.65075,3.53467 12.83642,5.34851 6.23218,1.76734 11.99927,1.76734 5.86011,0 8.9762,-1.95337 3.11609,-1.95337 3.11609,-5.58105 0,-3.25562 -2.13941,-5.022954 -2.09289,-1.767334 -8.41809,-3.162598 l -6.92981,-1.53479 q -10.41797,-2.232422 -15.25488,-7.115845 -4.79041,-4.883422 -4.79041,-13.161987 0,-10.37146 6.69727,-15.952514 6.69726,-5.581055 19.25464,-5.581055 5.72058,0 11.76672,0.883667 6.04614,0.837158 12.51087,2.557983 z m 11.99926,-2.185913 h 63.9961 V 63.647362 H 325.72916 V 119.55093 H 307.82327 V 63.647362 h -23.06836 z m 98.69165,30.788818 q 5.62757,0 8.04602,-2.092895 2.46497,-2.092896 2.46497,-6.883301 0,-4.743896 -2.46497,-6.790283 -2.41845,-2.046387 -8.04602,-2.046387 h -7.53442 v 17.812866 z m -7.53442,12.371338 v 26.27747 H 358.00626 V 50.113304 h 27.34716 q 13.7201,0 20.0918,4.60437 6.41821,4.60437 6.41821,14.557251 0,6.883301 -3.34863,11.301636 -3.30212,4.418335 -9.99939,6.51123 3.6742,0.837159 6.55774,3.813721 2.93005,2.930054 5.90662,8.929688 l 9.72033,19.71973 h -19.0686 l -8.4646,-17.25476 q -2.55798,-5.208989 -5.20898,-7.115849 -2.6045,-1.906861 -6.97632,-1.906861 z m 97.57544,13.62708 h -27.99829 l -4.41834,12.65039 h -17.9989 l 25.71936,-69.437626 h 21.34754 l 25.71936,69.437626 h -17.9989 z M 449.95413,94.017601 h 19.0221 l -9.4878,-27.626221 z m 55.11292,-43.904297 h 29.71911 q 13.25501,0 20.32434,5.906616 7.11585,5.860108 7.11585,16.743164 0,10.929566 -7.11585,16.836182 -7.06933,5.860107 -20.32434,5.860107 h -11.81323 v 24.091557 h -17.90588 z m 17.90588,12.975952 v 19.394165 h 9.90637 q 5.20899,0 8.04602,-2.511474 2.83704,-2.557984 2.83704,-7.208863 0,-4.650878 -2.83704,-7.162353 -2.83703,-2.511475 -8.04602,-2.511475 z m 51.90381,-12.975952 h 17.90588 v 69.437626 h -17.90588 z m 83.76233,2.185913 v 14.696778 q -5.72058,-2.557984 -11.16211,-3.86023 -5.44153,-1.302246 -10.27844,-1.302246 -6.41822,0 -9.4878,1.767334 -3.06958,1.767334 -3.06958,5.488037 0,2.790527 2.04639,4.371826 2.0929,1.53479 7.53442,2.651001 l 7.62745,1.53479 q 11.58068,2.32544 16.46411,7.069336 4.88342,4.743897 4.88342,13.487549 0,11.487668 -6.83679,17.115238 -6.79029,5.58105 -20.78943,5.58105 -6.60425,0 -13.25501,-1.25574 -6.65075,-1.25573 -13.30151,-3.7207 v -15.11536 q 6.65076,3.53467 12.83643,5.34851 6.23217,1.76734 11.99926,1.76734 5.86011,0 8.9762,-1.95337 3.11609,-1.95337 3.11609,-5.58105 0,-3.25562 -2.13941,-5.022954 -2.09289,-1.767334 -8.41809,-3.162598 l -6.92981,-1.53479 q -10.41796,-2.232422 -15.25488,-7.115845 -4.7904,-4.883422 -4.7904,-13.161987 0,-10.37146 6.69726,-15.952514 6.69727,-5.581055 19.25464,-5.581055 5.72058,0 11.76672,0.883667 6.04615,0.837158 12.51087,2.557983 z"
       id="text1"
       aria-label="SSTRAPIS" /></g></svg>
